<?xml version="1.0" encoding="UTF-8"?>
<svg id="Bathroom" xmlns="http://www.w3.org/2000/svg" viewBox="0 0 238.05 243.75">
  <defs>
    <style>
      .cls-1 {
        fill: #d394ac;
      }

      .cls-2 {
        fill: #f9cdda;
      }

      .cls-3 {
        fill: #efc5cc;
      }
    </style>
  </defs>
  <path class="cls-3" d="M149.21,86.15c-4.65-4.11-10.02-7.43-15.9-9.74-1.41-.9-2.89-1.63-4.54-2.01-1-.23-2.01-.31-3.03-.33-3.88-.89-7.91-1.38-12.06-1.38-1.22,0-2.45.06-3.67.14-2.57-.53-5.15-.97-7.76-.8-8.09.54-14.49,6.67-21.24,11.15-1.11.74-2.34,1.72-3.09,2.81-2.09,1.28-4.31,2.43-5.85,4.27-.94,1.12-1.55,2.47-2.16,3.8l-1.86,4.06c-5.08,8.2-8.02,17.86-8.02,28.22,0,1.54.08,3.07.21,4.58-.02.26-.03.51-.05.77-.13,2.12-.27,4.25,0,6.36.34,2.73,1.35,5.33,2.35,7.9,1.34,3.46,2.68,6.92,4.03,10.37.27.7.55,1.42,1.06,1.98.62.69,1.5,1.06,2.34,1.46,1.09.51,2.15,1.08,3.18,1.7,2.63,3.03,5.59,5.77,8.83,8.16,1.11,1.86,2.4,3.5,4.31,4.51,1.49.79,3.19,1.07,4.81,1.57,5.57,1.74,10.05,6.12,15.69,7.61,3.81,1,7.85.6,11.7-.21,3.66-.77,7.24-1.91,10.81-3.05,3.7-1.18,7.4-2.35,11.1-3.53,2.75-.87,5.64-1.84,7.53-4.02,1.27-1.46,1.96-3.34,3.02-4.96,2.31-3.57,5.62-3.22,7.93-6.79.67-1.03,1.84-4.76,2.65-5.68,1.32-1.49,3.25-2.26,4.88-3.39,3.33-2.32,3.44-8.53,4.39-12.48.94-3.94,2.84-5.66,2.8-9.72-.04-4.92-.1-9.97-1.87-14.56-1.77-4.58-5.17-8.5-6.28-13.29-.28-1.19-.42-2.44-1.05-3.48-1.71-2.78-6.12-2.8-7.9-5.54-.95-1.46-2.21-2.77-3.81-4.32"/>
  <path class="cls-1" d="M71.42,110.38c-.52,2.01-.38,4.19-1.26,6.07-.6,1.29-1.63,2.32-2.41,3.51-2.78,4.27-1.92,10,.21,14.62s5.39,8.66,7.47,13.31c-1.57-5.3-3.14-10.6-4.71-15.9-.69-2.34-1.39-4.77-1.06-7.19.35-2.59,1.84-4.87,3.29-7.04,1.51-2.26,3.01-4.52,4.52-6.78,1.55-2.32,3.1-4.65,5-6.69,1.39-1.5,3.03-2.97,3.47-4.97-.72-1.24-2.82-.77-3.5.49s-.41,2.8-.12,4.21c-.46-2.22-5.57-.11-6.5.52-2.11,1.44-3.75,3.31-4.4,5.84Z"/>
  <path class="cls-1" d="M115.81,170.24c1.13.76,2.2,1.65,3.44,2.21,1.77.8,3.77.89,5.71.85,5.93-.12,12.16-1.51,16.48-5.58,1.27-1.2,2.34-2.59,3.38-3.99,3.06-4.12,5.98-8.35,8.73-12.68-3.79,1.27-7.77,2.66-10.35,5.71-.58.68-1.08,1.44-1.76,2.02-.82.69-1.86,1.07-2.82,1.56-3.97,2.02-7.08,6.12-11.53,6.43-2.2.15-4.33-.68-6.45-1.31-7.09-2.11-14.63-1.93-22.01-2.46-1.76-.13-3.6-.33-5.05-1.33-1.37-.95-2.24-2.53-3.7-3.32s-3.93.01-3.64,1.65c.17.95,1.14,1.49,2.02,1.89,4.11,1.87,9.08,4.56,13.63,5,5.16.5,9.36.27,13.93,3.35Z"/>
  <path class="cls-2" d="M103.76,79.88c-3.91-.14-8.08-.22-11.4,1.84-.77.48-1.54,1.18-1.57,2.08-.03,1.02.95,1.85,1.96,2.03s2.03-.12,3.02-.4c12.67-3.48,26.51-2.51,38.57,2.69,3.08,1.33,6.13,2.94,9.47,3.2-4.5-3.42-8.45-9.67-14.35-10.45-8.39-1.11-17.25-.68-25.71-.99Z"/>
  <path class="cls-2" d="M146.16,115.15c2.13,2.03,3.51,4.72,4.65,7.44.89,2.13,1.66,4.31,2.29,6.53,1.1-.43,1.76-1.62,1.88-2.79s-.18-2.35-.5-3.49c-.44-1.57-.92-3.14-1.75-4.55-1.97-3.36-5.84-5.65-6.68-9.45-.39-1.77-.6-3.48-2.55-4.18-1.42-.51-3.13-.15-3.67,1.38-1.29,3.63,4.29,7.17,6.33,9.11Z"/>
</svg>