<?xml version="1.0" encoding="UTF-8"?>
<svg id="Layer_4" data-name="Layer 4" xmlns="http://www.w3.org/2000/svg" viewBox="0 0 238.05 243.75">
  <defs>
    <style>
      .cls-1 {
        fill: #a07535;
      }

      .cls-2 {
        fill: #845f23;
      }

      .cls-3 {
        fill: #5b3e14;
      }

      .cls-4 {
        fill: #d8ae7d;
      }

      .cls-5 {
        fill: none;
        stroke: #845f23;
        stroke-miterlimit: 10;
      }
    </style>
  </defs>
  <path class="cls-2" d="M230.51,90.57c-5.24-24.65-22.06-41.96-37.57-38.67-2.16.46-4.18,1.31-6.04,2.47L39.81,114.56l18.97,89.27,153.13-62.65c15.51-3.3,23.83-25.95,18.59-50.6Z"/>
  <path class="cls-3" d="M201.67,119.28c-2.22,2.29-3.71,5.18-5.68,7.69-5.92,7.54-16.49,11.09-25.76,8.65-1.8-.47-3.58-1.16-5.44-1.17-2.12-.01-4.13.85-6.12,1.57-6.8,2.46-14.13,3.43-21.33,2.82-1.07,3.43-2.27,7.05-4.99,9.41-2.34,2.02-5.46,2.8-8.46,3.52-5.77,1.39-11.55,2.77-17.32,4.16-4.56,1.09-9.3,2.28-12.86,5.32-2.41,2.06-4.1,4.82-6.39,7.02s-5.58,3.83-8.58,2.81c.3,4.27-3.58,7.52-5.6,11.3-1.86,3.49-2.12,7.58-2.35,11.53,9.07-3.08,17.84-7.03,26.15-11.77,1.51-.86,3.08-1.83,3.85-3.38.53-1.06.63-2.29,1.02-3.41.56-1.63,1.74-2.99,3.12-4.02,3.71-2.73,8.65-2.99,13.24-2.77,6.02.28,11.99,1.2,17.95,2.12,4.32-4.84,9.15-9.22,14.39-13.04,4.12-3.01,8.59-5.71,13.57-6.83,3.79-.85,7.71-.75,11.59-.61,1.22.04,2.45.09,3.63-.22,1.26-.33,2.38-1.03,3.48-1.73,2.66-1.68,5.32-3.37,7.98-5.05,3.26-2.06,6.61-4.17,10.39-4.97,3.54-.75,7.4-.28,10.79-1.68s6.42-5.11,8.51-7.87c4.59-6.07,1.37-13.47-6.38-14.21-4.53-.43-9.26,1.56-12.4,4.79Z"/>
  <path class="cls-1" d="M66.11,111.61c1.38.11,2.78.34,4.15.12,5.55-.88,8.03-8.26,13.48-9.61,1.86-.46,3.85-.14,5.73-.54,4.57-.98,7.36-5.92,11.83-7.29,2.87-.88,5.94-.15,8.93.02,11.29.63,21.39-6.83,29.26-14.95,1.3-1.34,2.58-2.71,4.12-3.76,5.31-3.61,12.32-2.63,18.73-3.06,4.45-.3,8.93-1.4,12.65-3.86,2-1.32,3.73-3,5.65-4.44,2.99-2.24,6.38-3.85,9.75-5.46,2.07-.99,4.23-1.99,6.52-2.05,3.9-.1,7.83,2.54,11.48,1.19.71,1.23-1.38,2.1-2.8,2.01-4.2-.27-8.39-.54-12.59-.81.1,3.22-.13,7.07-2.9,8.7-1.16.68-2.54.81-3.86,1.05-5.15.93-9.92,3.84-13.11,7.99-.82,1.07-1.57,2.25-2.69,3.02-4.35,2.99-11.46-1.77-15.21,1.96-.66.65-1.17,1.55-2.06,1.79-.51.14-1.06.04-1.58-.07-2.58-.52-5.16-1.04-7.74-1.56-6.16,5.4-12.33,10.79-18.49,16.19-1.5,1.32-3.04,2.65-4.89,3.41-5,2.05-10.72-.61-16.05.22-7.32,1.14-11.94,8.28-18.08,12.42-7.45,5.03-16.84,5.34-25.48,4.21-2.25-.3-4.5-.68-6.72-1.16-2.4-.52-4.46-1.03-1.82-2.93,3.58-2.57,9.55-3.1,13.78-2.75Z"/>
  <ellipse class="cls-2" cx="49.3" cy="159.19" rx="28.71" ry="45.63" transform="translate(-32.02 13.73) rotate(-12)"/>
  <ellipse class="cls-4" cx="49.3" cy="159.19" rx="24.92" ry="39.61" transform="translate(-32.02 13.73) rotate(-12)"/>
  <ellipse class="cls-5" cx="49.3" cy="159.19" rx="22.94" ry="36.46" transform="translate(-32.02 13.73) rotate(-12)"/>
  <ellipse class="cls-5" cx="49.34" cy="159.37" rx="20.94" ry="33.29" transform="translate(-32.06 13.74) rotate(-12)"/>
  <ellipse class="cls-5" cx="49.24" cy="159.39" rx="18.51" ry="30.38" transform="translate(-32.06 13.72) rotate(-12)"/>
  <ellipse class="cls-5" cx="48.76" cy="159.48" rx="15.18" ry="25.22" transform="translate(-32.09 13.62) rotate(-12)"/>
  <ellipse class="cls-5" cx="48.8" cy="159.48" rx="12.14" ry="20.83" transform="translate(-32.09 13.63) rotate(-12)"/>
  <ellipse class="cls-5" cx="48.74" cy="159.19" rx="9.77" ry="16.77" transform="translate(-32.03 13.61) rotate(-12)"/>
  <ellipse class="cls-5" cx="48.74" cy="159.72" rx="6.92" ry="11.87" transform="translate(-32.14 13.62) rotate(-12)"/>
  <ellipse class="cls-5" cx="48.8" cy="160.01" rx="4.64" ry="7.96" transform="translate(-32.2 13.64) rotate(-12)"/>
  <path class="cls-2" d="M82.05,105.86c-.36.15-.73.31-1,.58-.25.25-.41.56-.57.88-.74,1.46-1.47,2.93-2.21,4.39-.2.4-.4.8-.68,1.14-.9,1.08-2.44,1.36-3.85,1.46,1.93.19,3.89.37,5.79,0s3.78-1.35,4.76-3.02c.58-.98.88-2.21,1.84-2.83.41-.26.89-.38,1.37-.47.77-.15,1.54-.25,2.32-.31.23-.02.46-.03.65-.16.21-.14.32-.39.4-.63.79-2.3.54-3.39-1.7-2.8-2.38.62-4.82.82-7.13,1.75Z"/>
  <path class="cls-2" d="M119.14,95.81c.85-.15,1.75.09,2.59-.14,1.07-.3,2-1.33,3.08-1.09.18.27-.08.62-.33.83-.96.82-1.98,1.58-3.04,2.26-1.91,1.22-7.33,2.91-9.08.6.75-.6,2.29-.7,3.27-1.05,1.16-.41,2.3-1.2,3.52-1.41Z"/>
  <path class="cls-2" d="M151.99,76.32c.73-.28,1.54-.3,2.32-.31,1.69-.04,3.37-.08,5.06-.12.23,0,.49,0,.66.16.26.25.13.72-.17.93s-.68.22-1.04.23c-2.52.1-4.9.66-7.29,1.44-3.41,1.12-1.44-1.61.45-2.32Z"/>
  <path class="cls-2" d="M80.81,188.35c1.73-1.65,3.57-3.37,5.9-3.91,2.25-.52,5.08-.04,6.48-1.88,1.04-1.37.68-3.38,1.48-4.91.37-.69.96-1.24,1.52-1.78,2.4-2.31,4.58-4.84,6.51-7.55.95-1.34,1.84-3.21.83-4.51-1.06-1.37-3.21-.85-4.8-.17-1.65.7-3.34,1.47-4.51,2.83-.89,1.03-1.48,2.39-2.67,3.05-1.08.6-2.4.48-3.63.59s-2.63.67-2.92,1.88c-.38,1.58-.09,2.26-1.39,3.47-.91.85-1.42.95-1.76,2.24-.89,3.29-.71,7.27-1.05,10.67Z"/>
  <path class="cls-2" d="M122.26,160.17c.7-.08,1.43-.16,2.05-.49.83-.44,1.37-1.26,1.99-1.97,2.35-2.67,6.01-3.83,8.52-6.35,3.07-3.09,4.38-8.16,8.46-9.69-1.3,1.94-2.12,4.2-2.38,6.52-.15,1.35-.17,2.87-1.14,3.83-1.22,1.2-3.42.93-4.55,2.2-.43.48-.64,1.11-1.06,1.59-.78.89-2.06,1.06-3.19,1.39-2.78.81-5.05,2.78-7.64,4.06-1.68.82-4.77,1.79-6.54.68-1.55-.97-.35-1.09.96-1.29,1.5-.22,3.04-.33,4.55-.49Z"/>
  <path class="cls-2" d="M144.22,156.62c-2.59,1.13-5.2,2.28-7.49,3.95-.85.62-1.65,1.31-2.59,1.77-.6.3-1.23.5-1.85.76-.96.41-1.86.97-2.65,1.66,1.49-.11,3.01.31,4.24,1.16.27.19.54.4.87.44.61.07,1.08-.48,1.56-.87,1.5-1.22,3.9-1.11,5.09-2.63.59-.75.74-1.75,1.13-2.62,1.01-2.28,3.49-3.5,5.84-4.35.83-.3,7.09-2.82,4.94-3.26-.95-.19-3.69,1.62-4.63,2.03-1.49.65-2.97,1.3-4.46,1.96Z"/>
  <path class="cls-2" d="M201.82,125.88c-.39.07-.79.12-1.13.32-1.1.63-.89,2.47.15,3.18s2.49.52,3.62-.03,2.09-1.43,3.16-2.1c1.01-.62,2.12-1.06,3.28-1.29,1.83-.36,6.26-.73,6.84-3.1.38-1.53-1.64-2.67-2.86-2.96-2.42-.58-3.46,1.28-5.21,2.59-2.31,1.73-5.02,2.9-7.86,3.39Z"/>
  <path class="cls-2" d="M193.43,135.68c-1.31.43-2.65.88-3.75,1.72,3.75.8,7.76.36,11.25-1.25,2.72-1.25,5.22-3.26,8.24-3.73.78-.12,7.6.27,4.39-2.27-1.59-1.26-7.49,1.56-9.35,2.12-3.6,1.09-7.2,2.23-10.77,3.41Z"/>
  <path class="cls-2" d="M156,139.07c-1.75.1-3.7.37-4.79,1.75,5.14.23,10.27.85,15.33,1.85.37.07.8.19.95.55.26.64-.62,1.1-1.29,1.23-4.91.94-9.82,1.88-14.73,2.82,6.77.89,13.66.84,20.42-.14,2.73-.4,5.5-.97,7.9-2.33,1.95-1.1,3.67-2.71,5.94-3.13-4.51.54-8.34-.49-12.74-1.31-5.59-1.04-11.29-1.59-16.98-1.28Z"/>
</svg>