<?xml version="1.0" encoding="UTF-8"?>
<svg id="Clothing" xmlns="http://www.w3.org/2000/svg" viewBox="0 0 238.05 243.75">
  <defs>
    <style>
      .cls-1 {
        stroke: #491911;
        stroke-miterlimit: 10;
        stroke-width: .25px;
      }

      .cls-1, .cls-2 {
        fill: #934738;
      }

      .cls-3 {
        fill: #a55d51;
      }

      .cls-4 {
        fill: #a55542;
      }
    </style>
  </defs>
  <path class="cls-4" d="M19.22,89.66l60.23,109.76s1.53,6.42,10.09,0l119.54-79.8s2.75-2.95-1.22-6.06l-54.73-50.19s-11.31-9.78-14.37-16.2c0,0-14.04-2.7-43.09,3.1,0,0,23.67,18.45-2.01,30.83-18.47,8.91-31.34-.92-31.34-.92,0,0-9.46-3.27-12.82-9.69,0,0-6.74,7.86-19.28,13.06l-11.01,6.11Z"/>
  <polygon class="cls-2" points="54.38 74.37 101 54.04 107.73 73.76 73.33 88.91 55.14 78.5 54.38 74.37"/>
  <path class="cls-3" d="M100.77,56.1c-1.03-5.96-5.1-5.84-5.1-5.84,0,0-3.54,3.51-18.56,12.56s-27.94,8.18-27.94,8.18c.8,3.32,3.21,3.97,3.21,3.97,0,0,9.05.13,20.14-3.55,7.21-2.4,28.24-15.32,28.24-15.32Z"/>
  <path class="cls-1" d="M95.04,50.82s5.35-1.98,11.31-1.29,4.51,19.62,2.75,23.39c-1.59,3.41-9.17,14.68-28.89,15.82s-24.99-3.44-31.64-7.34-5.96-5.73-5.96-5.73c0,0,5.5-5.96,8.25-5.27s6.43,12.46,28.2,11.92,21.77-14.26,22.47-18.11c.76-4.2-1.45-13.38-6.49-13.38Z"/>
  <path class="cls-2" d="M168.73,117.96c-3.51-.24-7.07-.55-10.34-1.84-2.03-.8-3.97-1.99-6.15-2.14-3-.21-5.84,1.64-7.65,4.04s-2.79,5.31-3.81,8.14c-3.86,10.73-8.67,21.13-14.36,31.02,2.29-.96,4.59-1.92,6.88-2.88,3.44-1.44,7.01-2.98,9.44-5.81,2.2-2.56,3.23-5.92,5.09-8.74,1.14-1.73,2.59-3.25,4.27-4.46,3.56-2.59,9.3-3.35,11.85.23-3.48,2.72-6.47,6.07-8.79,9.84,6.46-1.52,12.73-3.87,18.59-6.99,1.88-1,3.73-2.09,5.24-3.58,1.36-1.34,2.4-2.97,3.72-4.33,2.06-2.12,4.73-3.53,7.35-4.9,3.05-1.6,8.71-3.35,10.76-5.98-3.41-2.07-9.99-.78-13.81-.84-6.11-.1-12.2-.39-18.29-.77Z"/>
  <path class="cls-2" d="M87.72,165.07c2.95-1,5.56-2.9,8.57-3.73s6.86-.13,8.16,2.71c-3.47,1.23-7.13,1.9-10.81,1.97.08,2.32,3.09,3.15,5.41,3.23,5.52.19,11.06-.14,16.53-.99-1.17,3.93-4.38,7.19-8.29,8.43-3.31,1.04-6.87.69-10.33.91-3.63.23-7.22,1.11-10.54,2.59,1.81,1.98,3.75,4.45,3.1,7.06-.79,3.2-4.76,4.2-8.03,4.6-1.11.14-2.29.27-3.31-.19-1.21-.54-1.94-1.77-2.58-2.93-1.12-2.01-2.24-4.02-3.3-6.07-3.84-7.46-7.59-16.02-8.86-24.37,6.82,3.6,16.52,9.42,24.29,6.78Z"/>
  <path class="cls-2" d="M19.22,89.66s45.4,94.68,61.83,112.61L19.22,89.66Z"/>
</svg>