<?xml version="1.0" encoding="UTF-8"?>
<svg id="Layer_1" data-name="Layer 1" xmlns="http://www.w3.org/2000/svg" viewBox="0 0 227.26 236.25">
  <defs>
    <style>
      .cls-1 {
        fill: #330803;
      }

      .cls-2 {
        fill: #dd9f47;
      }

      .cls-3 {
        fill: #965427;
      }

      .cls-4 {
        fill: #edbb72;
      }

      .cls-5 {
        fill: #7591ba;
      }

      .cls-6 {
        fill: #d6bf7c;
      }

      .cls-7 {
        fill: #e8d1b3;
        font-family: OldEnglishTextMT, 'Old English Text MT';
        font-size: 38.52px;
      }

      .cls-8 {
        fill: #efcc7f;
      }
    </style>
  </defs>
  <circle class="cls-5" cx="103.48" cy="103.48" r="103.48"/>
  <path class="cls-1" d="M150.32,226.61l-2.62-139.99C76.03,132.36,15.16,114.04,15.16,114.04v122.21l135.16-9.63Z"/>
  <path class="cls-6" d="M225.79,55.13c-5.26-29.86-23.16-51.66-39.96-48.69-12.59,2.22-20.99,17.71-22.2,37.88-.04.67-.07,1.35-.1,2.03-.22,6.18.21,12.76,1.4,19.51,1.74,9.85,4.87,18.8,8.86,26.3.29.55.58,1.12.88,1.65,8.07,14.24,19.36,22.66,30.22,20.75,16.81-2.96,26.16-29.57,20.9-59.43Z"/>
  <path class="cls-3" d="M172.36,89.34s-.04-.08-.06-.12c-.44-.92-.87-1.86-1.29-2.82-.05-.11-.09-.21-.14-.32-.39-.9-.76-1.82-1.12-2.75-.08-.2-.15-.4-.22-.59-.33-.86-.64-1.73-.95-2.62-.11-.31-.21-.63-.31-.95-.26-.8-.52-1.59-.77-2.41-.14-.46-.26-.93-.39-1.39-.2-.7-.4-1.39-.58-2.1-.17-.66-.32-1.34-.48-2.02-.13-.54-.26-1.07-.38-1.62-.27-1.24-.52-2.5-.74-3.77-1.19-6.75-1.63-13.33-1.4-19.51h0c-.86,5.95-3.74,10.62-7.04,14.15-1.21,20.3,7.43,26.12,7.43,26.12h0c3.38.95,7.1,2.54,9.88,5.54h0c-.49-.92-.97-1.86-1.43-2.83Z"/>
  <path class="cls-4" d="M156.49,60.5c-5.74,6.13-12.78,8.82-12.78,8.82L.27,110.97c.14,2.02.35,4.03.61,6.02,0,0,.01-.01.01-.01l144.65-29.77s9.35-3.11,18.38-.58h0s-8.64-5.82-7.43-26.12Z"/>
  <path class="cls-4" d="M225.79,55.13c-5.26-29.86-23.16-51.66-39.96-48.69-12.59,2.22-20.99,17.71-22.2,37.88-.04.67-.07,1.35-.1,2.03-.22,6.18.21,12.76,1.4,19.51,1.1,6.23,2.75,12.09,4.83,17.46,0,0,33.53,8.66,42.18,28.35,12.23-8.17,18.32-31.18,13.84-56.54Z"/>
  <path class="cls-2" d="M169.77,83.32c1.21,3.12,2.56,6.08,4.03,8.84.29.55.58,1.12.88,1.65,8.07,14.24,19.36,22.66,30.22,20.75,2.53-.45,4.89-1.44,7.05-2.88-8.65-19.7-42.18-28.35-42.18-28.35Z"/>
  <path class="cls-8" d="M167.25,72.53s23.39-2.9,26.6-1.07l-2.99,13.76-21.09-4.43s-.83-1.99-2.52-8.25Z"/>
  <path class="cls-8" d="M165.08,58.16s.18,1.99,1.4,9.02c0,0,17.73-.31,26.6-7.49,0,0,4.43-3.44,7.49-9.25,3.68-7-17.03-10.12-17.03-10.12,0,0-8.4,19.21-18.46,17.84Z"/>
  <path class="cls-3" d="M195.37,8.17s-30.77-8.41-30.28,42.65c0,0-.46-44.03,30.28-42.65Z"/>
  <path class="cls-2" d="M185.75,17.96c-7.96,8.81-12.94,17.18-15.13,22.93,5.47-4.71,10.64-7.21,14.06-8.56,2.38-.94,5.24-2.04,9.17-2.45,1.77-.18,7.24-1.1,13.68,2.1,4.82,2.39,14.83,15.48-12.16,31.15,0,0,33.64-2.63,28.14,26.37,0,0,5.96-20.98-1.83-44.09-1.28-3.8-2.58-12.25-11.01-23.33-5.68-7.47-10.55-9.4-13.41-11.35,0,0-5.57.66-11.5,7.22Z"/>
  <path class="cls-2" d="M156.49,60.5s-4.98,5.46-12.78,8.82c0,0-1.49,6.94,3.99,17.31,0,0,10.59-1.5,16.22,0,0,0-8.29-6.15-7.43-26.12Z"/>
  <path class="cls-8" d="M141.42,70.85L21.84,105.66l119.58-32.1s-.48-1.05,0-2.71Z"/>
  <path class="cls-2" d="M143.52,83.9l-121.15,28.24,122.48-26.09s-.95-.53-1.33-2.15Z"/>
  <text class="cls-7" transform="translate(17.65 170.62) rotate(-7.43) scale(.74 .97) skewX(-17.68)"><tspan x="0" y="0">Emergency</tspan><tspan x="46.63" y="46.22">Pals</tspan></text>
</svg>