<?xml version="1.0" encoding="UTF-8"?>
<svg id="Layer_3" data-name="Layer 3" xmlns="http://www.w3.org/2000/svg" viewBox="0 0 238.05 243.75">
  <defs>
    <style>
      .cls-1 {
        fill: #b2c157;
      }

      .cls-2 {
        fill: #d8e58f;
      }

      .cls-3 {
        fill: #e3f4ff;
      }

      .cls-4 {
        fill: #8beab1;
      }
    </style>
  </defs>
  <path class="cls-2" d="M102.99,158.75s1.53,9.48,9.78,15.59c0,0,44.03-13.45,54.73-49.22,0,0,9.81-20.22-10.7-56.56-6.35-11.24-20.03-22.93-44.64-25.99-36.01-4.47-58.09,29.66-58.09,29.66,0,0,.31,3.97,11.62,10.7l-9.89-5.57s-.2,6.8,8.2,10.62,15.21,5.21,26.29,10.24c8.77,3.98,22.47,10.39,30.27,25.07s3.97,23.54-2.9,28.59-14.68,6.88-14.68,6.88Z"/>
  <path class="cls-4" d="M104.05,162.47c3.05.2,35.78-6.16,41.28-28.94s-15.29-28.74-23.69-31.8-52.39-11.58-52.39-11.58c0,0,30.81,9.56,40.95,20.09s20,21.95,13.26,34.69c-4.18,7.91-10.31,10.12-20.47,13.82"/>
  <path class="cls-1" d="M102.99,158.75s-30.42,1.68-41.12,1.68-3.89,5.2,7.38,9.94,14.78,3.82,11.12,19.26-.62,16.82-.62,16.82c0,0,2.14,3.06,11.32-11.92s21.71-20.18,21.71-20.18c0,0-9.17-7.64-9.78-15.59Z"/>
  <path class="cls-1" d="M93.3,96.22s4.74,21.25,4.59,27.36,10.55,7.43,13.45.73,1.86-16.07,1.86-16.07c0,0-5.68-6.67-19.9-12.02Z"/>
  <path class="cls-1" d="M121.03,115.19s-.69,12.38-5.62,19.57,6.11,8.15,9.38,5.22,6.18-4.76,6.48-9.96-10.24-14.83-10.24-14.83Z"/>
  <path class="cls-1" d="M157.86,70.47s11.63-8.03,14.99,0,10.55,30.96,6.11,41.35-12.33,15.92-12.33,15.92c0,0,4.18-12.49,2.6-25.06s-10.32-30.3-11.38-32.21Z"/>
  <path class="cls-1" d="M100.34,42.45s17.63-12.72,34.44-12.56,31.34,2.32,28.13,6.28-16.29,20.24-16.29,20.24c0,0-13.92-15.15-46.28-13.96Z"/>
  <path class="cls-1" d="M108.34,78.19s28.43-4.89,27.06,9.02-24.31-1.68-24.31-1.68l-2.75-7.34Z"/>
  <circle class="cls-3" cx="75.4" cy="72.85" r="5.27"/>
  <circle cx="75.4" cy="72.85" r="3.65"/>
</svg>