<?xml version="1.0" encoding="UTF-8"?>
<svg id="Text" xmlns="http://www.w3.org/2000/svg" viewBox="0 0 238.05 243.75">
  <defs>
    <style>
      .cls-1 {
        stroke: #fffcd2;
        stroke-width: .5px;
      }

      .cls-1, .cls-2, .cls-3, .cls-4, .cls-5 {
        stroke-miterlimit: 10;
      }

      .cls-1, .cls-6 {
        fill: #fff;
      }

      .cls-2 {
        fill: none;
        stroke: #000;
      }

      .cls-3 {
        fill: #dbdbdb;
        stroke: #b7b7b7;
      }

      .cls-3, .cls-4, .cls-5 {
        stroke-width: .25px;
      }

      .cls-7 {
        fill: #f2dada;
      }

      .cls-4, .cls-5 {
        stroke: #bcbcbc;
      }

      .cls-4, .cls-8 {
        fill: #ffe7e6;
      }

      .cls-6 {
        opacity: .71;
      }

      .cls-5 {
        fill: #e28888;
      }

      .cls-9 {
        fill: #bababa;
        opacity: .5;
      }
    </style>
  </defs>
  <circle class="cls-1" cx="119.03" cy="119.03" r="118.78"/>
  <path class="cls-3" d="M86.61,167.99s-9.85,2.69-7.2,11.25c0,0-12.02.61-10.19,11.31,0,0-13.76-4.89-9.78,8.87,0,0-10,5.2-.72,11.01,0,0,69.5,36.69,122.4,0,9-6.24-.72-11.01-.72-11.01,3.97-13.76-9.78-8.87-9.78-8.87,1.83-10.7-10.19-11.31-10.19-11.31,2.65-8.56-7.2-11.25-7.2-11.25h-66.62Z"/>
  <path class="cls-3" d="M64.02,121.46s-8.25,24.54-25.68,35.31,11.69,24.76,11.69,24.76c0,0,14.9,6.19,24.76-7.57,0,0,5.88-6.97,4.36-17.66-.23-1.61-6.88-7.57-7.34-32.56l-7.8-2.29Z"/>
  <path class="cls-3" d="M175.36,119.23s8.25,24.54,25.68,35.31c17.43,10.78-11.69,24.76-11.69,24.76,0,0-14.9,6.19-24.76-7.57,0,0-5.88-6.97-4.36-17.66.23-1.61,6.88-7.57,7.34-32.56l7.8-2.29Z"/>
  <path class="cls-4" d="M73.02,139.23s-6.36,24.54-21.84,35.2c0,0,2.38,2.35,4.89,2.22,0,0,21.61.67,16.95-37.41Z"/>
  <path class="cls-8" d="M71.82,123.75s-2.98,57.02,48.15,56.94,47.59-59.17,47.59-59.17l-6.31-25.97-54.34-11.01-36.46,27.52,1.38,11.69Z"/>
  <path class="cls-3" d="M121.58,97.15s-6.65,8.94-16.74,5.27c0,0-5.96,12.38-23.39,11.46,0,0-5.27,19.26-22.47,4.13,0,0-28.2,3.67-15.36-22.7,0,0-30.5-38.29,19.95-41.73,0,0-.12-18.8,12.67-17.89,0,0,2.93-12.84,11.18-2.52,0,0,.57-12.81,6.65-17.99,7.66-6.53,21.56-4.58,25.91,9.74,0,0,3.67-2.52,8.25.92,0,0,11.92-22.7,32.1-1.83,0,0,13.76,12.15,7.11,24.99,0,0,5.27,1.38,7.8,8.03,0,0,17.43-7.11,20.87,6.42,0,0,12.38.92,16.51,15.13s-12.61,17.89-12.61,17.89c0,0,4.82,10.55-2.52,16.97s-15.36,0-15.36,0c0,0-8.48,10.09-16.28,7.11s-9.17-9.63-9.17-9.63c0,0-11.69,6.19-19.03-8.71,0,0-8.03,3.44-16.05-5.04Z"/>
  <path class="cls-4" d="M166.41,139.23s6.36,24.54,21.84,35.2c0,0-2.38,2.35-4.89,2.22,0,0-21.61.67-16.95-37.41Z"/>
  <ellipse cx="98.53" cy="127.22" rx="5.39" ry="9.37"/>
  <ellipse class="cls-5" cx="86.85" cy="151.26" rx="5.39" ry="9.37" transform="translate(-87.54 147.8) rotate(-59)"/>
  <ellipse class="cls-5" cx="151.47" cy="151.26" rx="9.37" ry="5.39" transform="translate(-56.27 99.62) rotate(-31)"/>
  <ellipse cx="141.3" cy="127.22" rx="5.39" ry="9.37"/>
  <path d="M122.49,146.33s8.71,1.72,7.45-2.98-7.11-1.26-8.71.49-2.82.45-3.44-.15c-1.48-1.42-5.16-4.59-8.14-.92s6.31,3.55,6.31,3.55c0,0-1.73,6.32,3.61,5.85s2.93-5.85,2.93-5.85Z"/>
  <path class="cls-2" d="M110.23,163.65s5.38,9.27,8.03,0c.79-2.77,1.32-11.46,1.32-11.46,0,0,.92,8.36,1.44,11.11.39,2.06,2.29,9.17,8.37.46"/>
  <ellipse class="cls-6" cx="96.21" cy="124.78" rx="1.43" ry="3.33"/>
  <ellipse class="cls-6" cx="139.14" cy="124.78" rx="1.43" ry="3.33"/>
  <path class="cls-7" d="M86.61,167.99s13.48,10.48,33.81,10.63,32.81-10.63,32.81-10.63c0,0-9.95,12.7-33.25,12.7-20.65,0-27.38-6.99-33.36-12.7Z"/>
  <ellipse class="cls-6" cx="99.06" cy="128.88" rx="1.43" ry="1.66"/>
  <ellipse class="cls-6" cx="141.99" cy="129.78" rx="1.43" ry="1.66"/>
  <path class="cls-9" d="M62.74,124.78s3.39,5.11,9.13,4.1l-.06-5.14s-4.72.61-7.8-2.29l-1.28,3.33Z"/>
  <path class="cls-9" d="M175.45,119.03s.16,1.31,1.55,4.39c0,0-2.77,4-9.43,3.09v-5.51s5.28.24,7.89-1.96Z"/>
</svg>