<?xml version="1.0" encoding="UTF-8"?>
<svg id="Shield" xmlns="http://www.w3.org/2000/svg" viewBox="0 0 227.26 236.25">
  <defs>
    <style>
      .cls-1 {
        fill: #4f0b06;
      }

      .cls-2 {
        fill: #999;
      }

      .cls-3 {
        fill: #bcbcbc;
      }

      .cls-4 {
        fill: #fce897;
        font-family: OldEnglishTextMT, 'Old English Text MT';
        font-size: 65.75px;
        stroke: #fffcd2;
        stroke-miterlimit: 10;
        stroke-width: .5px;
      }
    </style>
  </defs>
  <path class="cls-1" d="M157.85,59.32c-36.85-12.3-54.25-34.56-60.77-45.18-1.46-2.39-4.94-2.39-6.41,0-6.51,10.63-23.92,32.88-60.77,45.18-1.54.51-2.59,1.92-2.61,3.54-.11,13.13.58,71.01,20.53,110.1,20.74,40.64,42.15,39.66,45.58,39.21.31-.04.63-.04.95,0,3.42.45,24.84,1.43,45.58-39.21,19.95-39.09,20.64-96.97,20.53-110.1-.01-1.62-1.07-3.03-2.61-3.54Z"/>
  <path class="cls-2" d="M151.87,69.58c-45.04-14.12-57.99-45.3-57.99-45.3,0,0-12.96,31.18-57.99,45.3,0,0-1.87,59.69,17.85,98.33,19.72,38.64,40.14,34.11,40.14,34.11,0,0,20.42,4.53,40.14-34.11,19.72-38.64,17.85-98.33,17.85-98.33Z"/>
  <path class="cls-3" d="M93.87,24.27s12.96,31.18,57.99,45.3c0,0,1.87,59.69-17.85,98.33-19.72,38.64-40.14,34.11-40.14,34.11V24.27Z"/>
  <text class="cls-4" transform="translate(66.27 108.96)"><tspan x="0" y="0">E</tspan><tspan x="0" y="59">P</tspan></text>
</svg>